<svg width="24" height="17" viewBox="0 0 24 17" fill="none" xmlns="http://www.w3.org/2000/svg">
<path d="M19.98 2.16949C18.0696 0.631569 15.047 0.370929 14.9174 0.361809C14.8189 0.353702 14.7204 0.376423 14.6354 0.426821C14.5505 0.477219 14.4833 0.552799 14.4432 0.643088C14.3855 0.772795 14.3366 0.906212 14.2968 1.04245C15.5606 1.25605 17.1129 1.68565 18.5174 2.55733C18.571 2.59058 18.6175 2.63406 18.6543 2.68528C18.691 2.7365 18.7174 2.79447 18.7317 2.85587C18.7461 2.91727 18.7483 2.98089 18.738 3.04312C18.7278 3.10535 18.7055 3.16495 18.6722 3.21853C18.639 3.27211 18.5955 3.31861 18.5442 3.35539C18.493 3.39217 18.4351 3.41849 18.3737 3.43287C18.3123 3.44724 18.2486 3.44938 18.1864 3.43917C18.1242 3.42895 18.0646 3.40658 18.011 3.37333C15.5966 1.87429 12.5812 1.79989 12 1.79989C11.4192 1.79989 8.40188 1.87477 5.98892 3.37285C5.93534 3.4061 5.87574 3.42847 5.81351 3.43869C5.75129 3.4489 5.68766 3.44676 5.62626 3.43239C5.50226 3.40336 5.39487 3.32626 5.32772 3.21805C5.26057 3.10984 5.23915 2.97939 5.26818 2.85539C5.29721 2.73139 5.37431 2.624 5.48252 2.55685C6.887 1.68757 8.43932 1.25605 9.70316 1.04437C9.6302 0.806288 9.56396 0.656048 9.55916 0.643088C9.51922 0.552162 9.45171 0.476086 9.36618 0.425612C9.28065 0.375138 9.18143 0.352819 9.08252 0.361809C8.95292 0.371409 5.93036 0.631568 3.99356 2.19013C2.98316 3.12517 0.959961 8.59285 0.959961 13.3199C0.959961 13.4044 0.982521 13.485 1.0238 13.558C2.41868 16.0108 6.227 16.6516 7.09484 16.6799H7.10972C7.18546 16.6801 7.26017 16.6624 7.32774 16.6282C7.39532 16.5939 7.45384 16.5442 7.49852 16.4831L8.37548 15.2754C6.00764 14.6644 4.79804 13.6256 4.72892 13.5637C4.63344 13.4795 4.57535 13.3607 4.56743 13.2336C4.55951 13.1065 4.60241 12.9814 4.68668 12.886C4.77096 12.7905 4.88971 12.7324 5.01681 12.7245C5.14392 12.7166 5.26896 12.7595 5.36444 12.8437C5.39228 12.8701 7.61996 14.7599 12 14.7599C16.3872 14.7599 18.6148 12.8624 18.6374 12.8437C18.7332 12.7601 18.8582 12.7178 18.9851 12.7263C19.112 12.7347 19.2304 12.7932 19.3142 12.8888C19.3557 12.936 19.3875 12.9908 19.4078 13.0503C19.4281 13.1097 19.4364 13.1726 19.4324 13.2352C19.4284 13.2979 19.4121 13.3592 19.3844 13.4155C19.3567 13.4719 19.3182 13.5223 19.271 13.5637C19.2019 13.6256 17.9923 14.6644 15.6244 15.2754L16.5019 16.4831C16.5465 16.5442 16.605 16.5938 16.6724 16.628C16.7399 16.6622 16.8145 16.68 16.8902 16.6799H16.9046C17.7734 16.6516 21.5812 16.0103 22.9766 13.558C23.0174 13.485 23.04 13.4044 23.04 13.3199C23.04 8.59285 21.0168 3.12565 19.98 2.16949ZM8.87996 11.3999C7.95164 11.3999 7.19996 10.5407 7.19996 9.47989C7.19996 8.41909 7.95164 7.55989 8.87996 7.55989C9.80828 7.55989 10.56 8.41909 10.56 9.47989C10.56 10.5407 9.80828 11.3999 8.87996 11.3999ZM15.12 11.3999C14.1916 11.3999 13.44 10.5407 13.44 9.47989C13.44 8.41909 14.1916 7.55989 15.12 7.55989C16.0483 7.55989 16.8 8.41909 16.8 9.47989C16.8 10.5407 16.0483 11.3999 15.12 11.3999Z" fill="#282828"/>
</svg>
