<svg width="24" height="21" viewBox="0 0 24 21" fill="none" xmlns="http://www.w3.org/2000/svg">
<path d="M22.9166 0.488174L0.895399 9.13398C0.476455 9.29848 0.461239 9.88576 0.871063 10.0717L5.73932 12.2809C5.87117 12.3408 5.9713 12.4539 6.01469 12.592L8.10337 19.2389C8.20888 19.5745 8.61466 19.7047 8.89561 19.493L12.5312 16.754C12.7048 16.6232 12.9422 16.617 13.1224 16.7386L19.2198 20.8521C19.524 21.0572 19.9387 20.8832 20.0054 20.5225L23.6034 1.05472C23.6761 0.66179 23.2885 0.342158 22.9166 0.488174ZM9.57231 13.2236L8.91538 16.9581L7.2196 11.611L18.8457 4.39504L9.57231 13.2236Z" fill="#282828"/>
</svg>
